<?xml version="1.0" encoding="UTF-8" standalone="no"?>
<!-- Created with Inkscape (http://www.inkscape.org/) -->

<svg
   width="206.3812mm"
   height="108.97346mm"
   viewBox="0 0 206.3812 108.97346"
   version="1.1"
   id="svg5"
   inkscape:version="1.1 (c68e22c387, 2021-05-23)"
   sodipodi:docname="LOGO11.svg"
   xmlns:inkscape="http://www.inkscape.org/namespaces/inkscape"
   xmlns:sodipodi="http://sodipodi.sourceforge.net/DTD/sodipodi-0.dtd"
   xmlns:xlink="http://www.w3.org/1999/xlink"
   xmlns="http://www.w3.org/2000/svg"
   xmlns:svg="http://www.w3.org/2000/svg">
  <sodipodi:namedview
     id="namedview7"
     pagecolor="#ffffff"
     bordercolor="#666666"
     borderopacity="1.0"
     inkscape:pageshadow="2"
     inkscape:pageopacity="0.0"
     inkscape:pagecheckerboard="0"
     inkscape:document-units="mm"
     showgrid="false"
     inkscape:zoom="0.94236332"
     inkscape:cx="367.69258"
     inkscape:cy="127.87"
     inkscape:window-width="1920"
     inkscape:window-height="1001"
     inkscape:window-x="-9"
     inkscape:window-y="-9"
     inkscape:window-maximized="1"
     inkscape:current-layer="layer2"
     inkscape:snap-global="false"
     fit-margin-top="0"
     fit-margin-left="0"
     fit-margin-right="0"
     fit-margin-bottom="0" />
  <defs
     id="defs2">
    <linearGradient
       id="linearGradient36591"
       inkscape:swatch="solid">
      <stop
         style="stop-color:#000000;stop-opacity:0;"
         offset="0"
         id="stop36589" />
    </linearGradient>
    <linearGradient
       id="linearGradient33349"
       inkscape:swatch="solid">
      <stop
         style="stop-color:#000000;stop-opacity:1;"
         offset="0"
         id="stop33347" />
    </linearGradient>
    <linearGradient
       inkscape:collect="always"
       id="linearGradient5721">
      <stop
         style="stop-color:#000000;stop-opacity:1;"
         offset="0"
         id="stop5717" />
      <stop
         style="stop-color:#000000;stop-opacity:0;"
         offset="1"
         id="stop5719" />
    </linearGradient>
    <linearGradient
       inkscape:collect="always"
       id="linearGradient5649">
      <stop
         style="stop-color:#000000;stop-opacity:1;"
         offset="0"
         id="stop5645" />
      <stop
         style="stop-color:#000000;stop-opacity:0;"
         offset="1"
         id="stop5647" />
    </linearGradient>
    <linearGradient
       inkscape:collect="always"
       id="linearGradient5257">
      <stop
         style="stop-color:#000000;stop-opacity:1;"
         offset="0"
         id="stop5253" />
      <stop
         style="stop-color:#000000;stop-opacity:0;"
         offset="1"
         id="stop5255" />
    </linearGradient>
    <linearGradient
       inkscape:collect="always"
       id="linearGradient4737">
      <stop
         style="stop-color:#000000;stop-opacity:1;"
         offset="0"
         id="stop4733" />
      <stop
         style="stop-color:#000000;stop-opacity:0;"
         offset="1"
         id="stop4735" />
    </linearGradient>
    <rect
       x="327.63199"
       y="-5.5296535"
       width="9.6768942"
       height="199.06754"
       id="rect12685" />
    <linearGradient
       inkscape:collect="always"
       xlink:href="#linearGradient4737"
       id="linearGradient4739"
       x1="89.283508"
       y1="159.19417"
       x2="107.25251"
       y2="208.04741"
       gradientUnits="userSpaceOnUse"
       gradientTransform="matrix(0.92444643,0,0,0.8679882,3.350294,18.993577)" />
    <linearGradient
       inkscape:collect="always"
       xlink:href="#linearGradient5257"
       id="linearGradient5259"
       x1="57.556976"
       y1="113.99089"
       x2="101.07567"
       y2="67.945305"
       gradientUnits="userSpaceOnUse"
       gradientTransform="matrix(0.92444643,0,0,0.8679882,3.350294,18.993577)" />
    <linearGradient
       inkscape:collect="always"
       xlink:href="#linearGradient5649"
       id="linearGradient5651"
       x1="149.92891"
       y1="126.34458"
       x2="176.04012"
       y2="178.00548"
       gradientUnits="userSpaceOnUse"
       gradientTransform="matrix(0.92444643,0,0,0.8679882,3.350294,18.993577)" />
    <linearGradient
       inkscape:collect="always"
       xlink:href="#linearGradient5721"
       id="linearGradient5723"
       x1="144.03282"
       y1="99.671837"
       x2="172.10939"
       y2="89.56427"
       gradientUnits="userSpaceOnUse"
       gradientTransform="matrix(0.92444643,0,0,0.8679882,3.350294,18.993577)" />
    <linearGradient
       inkscape:collect="always"
       xlink:href="#linearGradient36591"
       id="linearGradient36593"
       x1="3.2196141"
       y1="132.80222"
       x2="209.60081"
       y2="132.80222"
       gradientUnits="userSpaceOnUse" />
  </defs>
  <g
     inkscape:label="Warstwa 1"
     inkscape:groupmode="layer"
     id="layer1"
     transform="translate(-3.2196141,-82.929887)">
    <text
       xml:space="preserve"
       transform="scale(0.26458333)"
       id="text12683"
       style="font-size:40px;line-height:1.25;font-family:'Trebuchet MS';-inkscape-font-specification:'Trebuchet MS';letter-spacing:0px;word-spacing:0px;white-space:pre;shape-inside:url(#rect12685)" />
    <text
       xml:space="preserve"
       style="font-size:10.5833px;line-height:1.25;font-family:'Trebuchet MS';-inkscape-font-specification:'Trebuchet MS';letter-spacing:0px;word-spacing:0px;stroke-width:0.264583"
       x="171.90887"
       y="103.87685"
       id="text16723"><tspan
         sodipodi:role="line"
         id="tspan16721"
         style="stroke-width:0.264583"
         x="171.90887"
         y="103.87685" /><tspan
         sodipodi:role="line"
         style="stroke-width:0.264583"
         id="tspan16725"
         x="171.90887"
         y="117.10597" /><tspan
         sodipodi:role="line"
         style="stroke-width:0.264583"
         x="171.90887"
         y="130.3351"
         id="tspan16835" /><tspan
         sodipodi:role="line"
         style="stroke-width:0.264583"
         x="171.90887"
         y="143.56422"
         id="tspan16975" /></text>
    <path
       style="fill:url(#linearGradient4739);fill-opacity:1;stroke:#000000;stroke-width:0.237006px;stroke-linecap:butt;stroke-linejoin:miter;stroke-opacity:1"
       d="m 75.091859,137.18725 3.398922,-3.41931 3.641705,0.45592 1.456682,2.27952 3.520313,-0.56988 0.242781,-1.36772 1.942241,1.25375 2.670585,3.76122 c 5.68181,0.56156 2.591414,-1.59187 5.219765,2.27953 l -0.364167,3.19135 5.098364,1.59567 h 5.58395 l 1.2139,2.84942 3.03475,0.45589 -0.12139,1.93761 -3.52031,3.19134 -0.36417,7.7504 -2.67058,1.70966 h -3.39892 l -0.97113,1.82362 0.48556,3.53327 -3.520295,4.90099 -1.456669,2.50748 -4.248658,1.82363 -2.063634,0.11398 -0.242778,1.25374 1.57807,0.22795 0.12139,1.25375 -2.185023,1.13976 1.335294,1.36771 1.820849,0.34194 2e-6,1.59567 -0.60695,2.16555 2.670582,2.05158 -0.24278,1.13976 -3.884484,-0.11398 -3.398924,-2.8494 -3.034753,-5.01497 0.36417,-5.12895 -1.942244,-2.3935 0.364173,-5.24293 -1.213901,-0.11397 0.121388,-10.14392 -4.127263,-2.8494 -2.185024,-0.45591 v -1.9376 l -4.855603,-5.58486 0.485558,-5.47087 3.398926,-2.27953 -0.364171,-3.76122 z"
       id="path169"
       sodipodi:nodetypes="ccccccccccccccccccccccccccccccccccccccccccccccccccc" />
    <path
       style="fill:url(#linearGradient5651);fill-opacity:1;stroke:#000000;stroke-width:0.237006px;stroke-linecap:butt;stroke-linejoin:miter;stroke-opacity:1"
       d="m 124.7404,116.44352 0.36417,3.64725 -7.16202,4.78701 0.60695,1.48169 1.45668,0.11398 -0.48556,2.39352 -0.84972,0.11396 -0.24278,5.3569 6.1909,6.38269 2.54918,0.22795 0.24278,-0.56989 h 5.09839 l 1.33529,-1.13976 2.42781,0.22795 1.57806,1.25375 4.12727,0.56988 -0.48556,5.12894 4.61282,7.7504 -2.67058,3.19135 0.12139,2.84941 2.18502,1.59568 -0.36417,4.67303 2.5492,3.30532 v 3.64725 l 2.4278,0.45591 3.6417,-3.53327 6.19089,-12.87935 4.49144,-19.26203 -0.84973,-12.19549 -2.06363,-7.29451 -5.34117,-0.22795 -2.91337,-1.82362 c -1.29482,-0.0761 -1.9827,1.48506 -3.27753,0.22795 v 1.9376 l -1.2139,0.22796 -1.45669,-1.59567 -5.34115,-1.02579 -0.1214,-3.07737 h -7.4048 l -1.69945,1.82362 -4.12726,-0.56988 z"
       id="path2744"
       sodipodi:nodetypes="cccccccccccccccccccccccccccccccccccccccccc" />
    <path
       style="fill:url(#linearGradient5723);fill-opacity:1;stroke:#000000;stroke-width:0.237006px;stroke-linecap:butt;stroke-linejoin:miter;stroke-opacity:1"
       d="m 129.96017,106.86948 -3.39892,0.91182 -0.60695,1.93759 0.48556,3.07737 2.30641,0.79785 4.73421,-0.45591 0.48557,-1.70965 c 0,0 2.54919,-3.53327 3.27754,-3.4193 0.72833,0.11398 2.18501,0.11398 2.18501,0.11398 l 1.82086,-1.48169 c 0,0 -0.24279,1.25374 0.24278,1.48169 0.48556,0.22795 5.09838,2.96339 5.09838,2.96339 l -0.48556,0.79783 -2.30641,-0.11397 c 0,0 0.12139,1.02578 0.72834,1.13977 0.60695,0.11397 1.94225,0.34193 1.94225,0.34193 l 1.2139,-0.68387 v -1.70964 l 0.84973,-0.68386 -4.12726,-2.27953 c 0,0 -1.45669,-2.50749 -0.84974,-2.27954 0.60695,0.22795 2.79196,-0.22795 2.79196,-0.22795 l 3.15615,3.07737 v 2.62146 l 2.67059,2.27953 0.97112,-3.4193 1.94225,-1.25374 -0.36419,2.73544 2.06364,2.16556 h 3.52032 l -1.09251,-2.62147 -1.82086,-0.22795 -0.24277,-2.62146 0.72833,-0.22795 -0.84972,-3.19135 -1.82086,-3.07737 -5.09838,-4.445081 -1.09252,1.70965 -4.12726,0.341929 -0.36417,-1.253742 2.4278,-1.139766 0.36417,-3.305319 -0.60694,-1.595673 -2.18503,-2.507482 -1.45669,-0.113977 -1.0925,1.709648 -2.79198,0.797836 -1.57807,1.823623 0.60695,1.70965 1.45668,-0.113977 0.72834,1.9376 2.5492,-0.569882 0.48556,2.735432 -2.67058,-0.4559 -2.67059,0.341929 -1.94224,3.419292 -3.27754,0.56989 -0.84972,2.16555 1.69945,0.68387 -0.48556,1.93759 z"
       id="path3243" />
    <path
       style="fill:#000000;stroke:#000000;stroke-width:0.237006px;stroke-linecap:butt;stroke-linejoin:miter;stroke-opacity:1"
       d="m 130.08157,95.357856 2.4278,-0.569882 0.60695,2.507484 1.69946,2.279529 1.33529,0.455903 -1.21391,1.93761 -4.49143,0.11397 0.60696,-2.393504 1.57806,0.227949 -0.12138,-0.91181 -2.5492,-1.709647 z"
       id="path3504" />
    <path
       style="fill:#000000;stroke:#000000;stroke-width:0.237006px;stroke-linecap:butt;stroke-linejoin:miter;stroke-opacity:1"
       d="m 127.28958,97.751361 1.82087,-0.113975 1.57806,0.911812 -0.12139,1.025789 -2.54919,1.823623 -1.69946,-0.22795 -0.36417,-1.13977 z"
       id="path3539" />
    <path
       style="fill:url(#linearGradient5259);fill-opacity:1;stroke:#000000;stroke-width:0.237006px;stroke-linecap:butt;stroke-linejoin:miter;stroke-opacity:1"
       d="m 46.322398,104.13405 -4.976994,5.3569 0.121389,5.58485 2.549193,1.25374 v 4.78701 l 2.427803,3.98918 2.063631,0.34193 0.242781,-1.13976 -2.427803,-4.21713 -0.364172,-3.07738 0.971123,-0.22795 0.97112,3.30533 3.641706,5.47087 -1.092511,1.82363 2.306412,2.96338 5.462553,1.36771 0.485563,-1.25374 2.18502,0.91182 -0.485557,1.59568 5.098384,0.79782 3.277532,4.33112 4.976995,0.22795 1.335293,-1.02579 -5.341165,-0.91181 -0.242781,-5.3569 -3.884483,-0.91181 1.942241,-2.39352 c 0,0 -0.48556,-1.70963 -0.971121,-1.70963 -0.485561,0 -4.976995,3.19133 -4.976995,3.19133 l -3.156144,-0.22795 -1.213901,-2.96338 2.549193,-4.44509 c 0,0 3.884484,-2.3935 4.491435,-2.3935 0.606949,0 7.890357,-0.11398 7.890357,-0.11398 l -0.606949,2.16555 2.913363,1.82363 -0.849732,-4.33112 6.433678,-4.10315 v -1.9376 l 4.612825,-4.10316 3.277534,-1.70965 -0.364171,-1.02579 2.913364,-1.48169 1.699459,0.11398 1.213904,-0.79783 -2.306413,-0.68387 0.72834,-1.36772 0.60695,-0.11397 1.335293,0.22795 c 0,0 0.36417,0.91181 0.84973,0.91181 0.48556,0 2.306405,-0.34192 2.306405,-0.34192 l 0.606951,-0.79784 h 0.971117 l 0.242775,1.13976 -0.728338,0.79784 -0.121388,0.56988 3.156138,1.48169 h 1.0925 v -1.59566 l -2.791961,-1.25375 0.121394,-0.91181 2.185017,-0.11398 -0.12139,-2.621455 -2.185021,-1.481694 -0.364173,-3.533273 -2.79195,2.051576 -1.820856,-0.113975 0.485559,-2.279533 -4.491434,-1.481693 -2.063632,1.595671 0.242781,3.875202 -3.156144,1.02579 -1.092512,2.849414 c 0,0 -2.063633,0.68386 -2.306411,0.22795 -0.24278,-0.45591 0,-3.8752 0,-3.8752 l -2.185023,-0.455907 -1.213901,0.113978 -1.213901,-0.797836 -0.728342,-2.165555 6.190897,-3.419297 2.549193,-0.683859 0.121392,1.595673 h 1.82085 v -1.253743 l 1.578071,0.113978 -1.092511,-0.683861 c 0,0 -0.48556,-1.139765 0.121392,-1.139765 0.60695,0 2.185021,-0.113978 2.185021,-0.113978 l 1.942242,-1.481694 4.248655,-0.455906 1.45667,1.709649 -5.098374,2.165555 6.676441,1.709647 0.849721,-1.937601 h 2.06364 l 1.45668,-1.595672 -2.42781,-0.797835 0.72835,-2.393509 -6.069492,-2.393506 -4.976993,0.34193 -1.699462,1.367718 0.121392,2.393506 -2.549193,-0.227952 -0.485562,-1.367718 2.427804,-2.051579 -4.491436,-0.227953 -1.09251,0.341931 v 1.481695 l 1.456682,0.341928 -0.728342,1.823626 -2.549193,-0.455907 -0.36417,1.709647 h -3.884484 l -0.364169,-2.27953 h 3.520313 l 1.820851,-2.051577 -1.335292,-1.139765 -1.578071,1.481695 -2.791974,0.227953 -1.94224,-2.165554 h -3.034752 l -4.248656,2.393508 3.641702,0.341929 0.606954,1.025789 -1.092513,0.113976 3.763096,0.455906 0.364169,1.367719 -4.005875,0.227951 -0.242781,-1.139765 -2.913363,-0.683857 -1.213901,-0.911812 -3.398922,0.227951 -6.190897,2.507483 c 0,0 -3.277536,2.96339 -3.641705,3.875205 -0.36417,0.911811 -3.884483,5.014967 -3.884483,5.014967 l -2.670584,3.76122 z"
       id="path3705" />
  </g>
  <g
     inkscape:groupmode="layer"
     id="layer2"
     inkscape:label="Warstwa 2"
     transform="translate(-3.2196141,-82.929887)">
    <path
       id="path32629-5"
       style="font-weight:bold;font-size:25.4px;line-height:1.25;font-family:'Trebuchet MS';-inkscape-font-specification:'Trebuchet MS Bold';letter-spacing:2.11667px;word-spacing:0px;fill:#f2f2f2;stroke:url(#linearGradient36593);stroke-width:0.264583;stroke-opacity:1"
       d="m 149.36522,119.74512 c -3.29581,0 -5.9313,1.24632 -7.9065,3.73827 -1.9637,2.48047 -2.94555,5.51772 -2.94555,9.1121 0,4.11115 0.90129,7.34954 2.70422,9.71517 1.81442,2.36564 4.41547,3.54862 7.80315,3.54862 3.68625,0 6.52845,-1.19464 8.52661,-3.58324 2.00964,-2.3886 3.0148,-5.61533 3.0148,-9.68055 0,-4.06522 -0.95906,-7.22304 -2.87683,-9.47384 -1.91777,-2.2508 -4.69107,-3.37653 -8.3199,-3.37653 z m -134.455364,0.0176 c -3.3762,0 -6.1495004,1.25747 -8.3199104,3.77239 -2.15893,2.50344 -3.23804,5.62124 -3.23804,9.35343 0,4.0078 0.97576,7.1712 2.92798,9.49089 1.95223,2.3197 4.6910694,3.47989 8.2165604,3.47989 3.52548,0 6.20151,-0.97071 8.02741,-2.91145 l -2.08462,-3.61735 c -1.34359,1.69958 -3.20394,2.54972 -5.58106,2.54972 -2.07854,0 -3.743321,-0.79238 -4.9950407,-2.37712 -1.2402397,-1.58474 -1.8603497,-3.72679 -1.8603497,-6.42545 0,-2.69866 0.67179,-4.92631 2.0153794,-6.68331 1.34359,-1.76849 3.066131,-2.65255 5.167641,-2.65255 2.21635,0 3.82388,0.49954 4.82296,1.49862 l 1.8433,-3.70365 c -1.73403,-1.18282 -4.04833,-1.77406 -6.94221,-1.77406 z m 84.980339,0.0858 -10.059851,25.57984 h 4.978509 l 1.756997,-5.11597 h 8.64702 l 1.8433,5.11597 h 4.94337 l -10.14563,-25.57983 z m -71.103149,0.34469 v 25.23515 h 15.88172 v -3.97909 h -11.40344 v -21.25606 z m 22.2312,0 v 25.23515 h 4.47828 v -25.23515 z m 15.22026,0 -5.08135,25.25272 h 4.32325 l 2.7218,-13.60847 5.08135,13.93558 h 1.60197 l 5.08186,-13.93558 2.61792,13.60847 h 4.340823 l -5.150073,-25.25272 h -2.36006 l -5.33973,17.00155 -5.46065,-17.00155 z m 50.043454,0 v 3.97908 h 10.35235 l -10.52443,19.80913 v 1.44694 h 17.00155 v -3.97908 h -10.93835 l 10.55904,-19.80913 v -1.44694 z m 50.88734,0 v 25.25272 h 4.30671 v -15.6409 l 12.24732,15.96802 h 1.82572 v -25.57984 h -4.30619 v 15.22749 l -11.92021,-15.22749 z m 26.19323,0 v 25.23515 h 15.91634 v -3.97908 h -11.43754 v -7.56182 h 8.33696 v -3.807 h -8.33696 v -5.90816 h 11.62719 v -3.97909 z m -43.99731,3.53105 c 4.36379,0 6.54585,2.95721 6.54585,8.87129 0,3.0202 -0.59175,5.32285 -1.77457,6.90759 -1.17133,1.58474 -2.87665,2.37712 -5.11596,2.37712 -1.90629,0 -3.3588,-0.8096 -4.35788,-2.42879 -0.99908,-1.6192 -1.49862,-3.90462 -1.49862,-6.85592 0,-2.71014 0.53399,-4.86332 1.60197,-6.45955 1.06799,-1.60771 2.60105,-2.41174 4.59921,-2.41174 z m -48.49318,3.84163 3.03187,9.31881 h -6.063718 z"
       sodipodi:nodetypes="scscscsssscsssccscscsccsccccccccccccccccccccccccccccccccccccccccccccccccccccccccccccccccccccccsscssscscccc" />
    <script
       id="mesh_polyfill"
       type="text/javascript">
!function(){const t=&quot;http://www.w3.org/2000/svg&quot;,e=&quot;http://www.w3.org/1999/xlink&quot;,s=&quot;http://www.w3.org/1999/xhtml&quot;,r=2;if(document.createElementNS(t,&quot;meshgradient&quot;).x)return;const n=(t,e,s,r)=&gt;{let n=new x(.5*(e.x+s.x),.5*(e.y+s.y)),o=new x(.5*(t.x+e.x),.5*(t.y+e.y)),i=new x(.5*(s.x+r.x),.5*(s.y+r.y)),a=new x(.5*(n.x+o.x),.5*(n.y+o.y)),h=new x(.5*(n.x+i.x),.5*(n.y+i.y)),l=new x(.5*(a.x+h.x),.5*(a.y+h.y));return[[t,o,a,l],[l,h,i,r]]},o=t=&gt;{let e=t[0].distSquared(t[1]),s=t[2].distSquared(t[3]),r=.25*t[0].distSquared(t[2]),n=.25*t[1].distSquared(t[3]),o=e&gt;s?e:s,i=r&gt;n?r:n;return 18*(o&gt;i?o:i)},i=(t,e)=&gt;Math.sqrt(t.distSquared(e)),a=(t,e)=&gt;t.scale(2/3).add(e.scale(1/3)),h=t=&gt;{let e,s,r,n,o,i,a,h=new g;return t.match(/(\w+\(\s*[^)]+\))+/g).forEach(t=&gt;{let l=t.match(/[\w.-]+/g),d=l.shift();switch(d){case&quot;translate&quot;:2===l.length?e=new g(1,0,0,1,l[0],l[1]):(console.error(&quot;mesh.js: translate does not have 2 arguments!&quot;),e=new g(1,0,0,1,0,0)),h=h.append(e);break;case&quot;scale&quot;:1===l.length?s=new g(l[0],0,0,l[0],0,0):2===l.length?s=new g(l[0],0,0,l[1],0,0):(console.error(&quot;mesh.js: scale does not have 1 or 2 arguments!&quot;),s=new g(1,0,0,1,0,0)),h=h.append(s);break;case&quot;rotate&quot;:if(3===l.length&amp;&amp;(e=new g(1,0,0,1,l[1],l[2]),h=h.append(e)),l[0]){r=l[0]*Math.PI/180;let t=Math.cos(r),e=Math.sin(r);Math.abs(t)&lt;1e-16&amp;&amp;(t=0),Math.abs(e)&lt;1e-16&amp;&amp;(e=0),a=new g(t,e,-e,t,0,0),h=h.append(a)}else console.error(&quot;math.js: No argument to rotate transform!&quot;);3===l.length&amp;&amp;(e=new g(1,0,0,1,-l[1],-l[2]),h=h.append(e));break;case&quot;skewX&quot;:l[0]?(r=l[0]*Math.PI/180,n=Math.tan(r),o=new g(1,0,n,1,0,0),h=h.append(o)):console.error(&quot;math.js: No argument to skewX transform!&quot;);break;case&quot;skewY&quot;:l[0]?(r=l[0]*Math.PI/180,n=Math.tan(r),i=new g(1,n,0,1,0,0),h=h.append(i)):console.error(&quot;math.js: No argument to skewY transform!&quot;);break;case&quot;matrix&quot;:6===l.length?h=h.append(new g(...l)):console.error(&quot;math.js: Incorrect number of arguments for matrix!&quot;);break;default:console.error(&quot;mesh.js: Unhandled transform type: &quot;+d)}}),h},l=t=&gt;{let e=[],s=t.split(/[ ,]+/);for(let t=0,r=s.length-1;t&lt;r;t+=2)e.push(new x(parseFloat(s[t]),parseFloat(s[t+1])));return e},d=(t,e)=&gt;{for(let s in e)t.setAttribute(s,e[s])},c=(t,e,s,r,n)=&gt;{let o,i,a=[0,0,0,0];for(let h=0;h&lt;3;++h)e[h]&lt;t[h]&amp;&amp;e[h]&lt;s[h]||t[h]&lt;e[h]&amp;&amp;s[h]&lt;e[h]?a[h]=0:(a[h]=.5*((e[h]-t[h])/r+(s[h]-e[h])/n),o=Math.abs(3*(e[h]-t[h])/r),i=Math.abs(3*(s[h]-e[h])/n),a[h]&gt;o?a[h]=o:a[h]&gt;i&amp;&amp;(a[h]=i));return a},u=[[1,0,0,0,0,0,0,0,0,0,0,0,0,0,0,0],[0,0,0,0,1,0,0,0,0,0,0,0,0,0,0,0],[-3,3,0,0,-2,-1,0,0,0,0,0,0,0,0,0,0],[2,-2,0,0,1,1,0,0,0,0,0,0,0,0,0,0],[0,0,0,0,0,0,0,0,1,0,0,0,0,0,0,0],[0,0,0,0,0,0,0,0,0,0,0,0,1,0,0,0],[0,0,0,0,0,0,0,0,-3,3,0,0,-2,-1,0,0],[0,0,0,0,0,0,0,0,2,-2,0,0,1,1,0,0],[-3,0,3,0,0,0,0,0,-2,0,-1,0,0,0,0,0],[0,0,0,0,-3,0,3,0,0,0,0,0,-2,0,-1,0],[9,-9,-9,9,6,3,-6,-3,6,-6,3,-3,4,2,2,1],[-6,6,6,-6,-3,-3,3,3,-4,4,-2,2,-2,-2,-1,-1],[2,0,-2,0,0,0,0,0,1,0,1,0,0,0,0,0],[0,0,0,0,2,0,-2,0,0,0,0,0,1,0,1,0],[-6,6,6,-6,-4,-2,4,2,-3,3,-3,3,-2,-1,-2,-1],[4,-4,-4,4,2,2,-2,-2,2,-2,2,-2,1,1,1,1]],f=t=&gt;{let e=[];for(let s=0;s&lt;16;++s){e[s]=0;for(let r=0;r&lt;16;++r)e[s]+=u[s][r]*t[r]}return e},p=(t,e,s)=&gt;{const r=e*e,n=s*s,o=e*e*e,i=s*s*s;return t[0]+t[1]*e+t[2]*r+t[3]*o+t[4]*s+t[5]*s*e+t[6]*s*r+t[7]*s*o+t[8]*n+t[9]*n*e+t[10]*n*r+t[11]*n*o+t[12]*i+t[13]*i*e+t[14]*i*r+t[15]*i*o},y=t=&gt;{let e=[],s=[],r=[];for(let s=0;s&lt;4;++s)e[s]=[],e[s][0]=n(t[0][s],t[1][s],t[2][s],t[3][s]),e[s][1]=[],e[s][1].push(...n(...e[s][0][0])),e[s][1].push(...n(...e[s][0][1])),e[s][2]=[],e[s][2].push(...n(...e[s][1][0])),e[s][2].push(...n(...e[s][1][1])),e[s][2].push(...n(...e[s][1][2])),e[s][2].push(...n(...e[s][1][3]));for(let t=0;t&lt;8;++t){s[t]=[];for(let r=0;r&lt;4;++r)s[t][r]=[],s[t][r][0]=n(e[0][2][t][r],e[1][2][t][r],e[2][2][t][r],e[3][2][t][r]),s[t][r][1]=[],s[t][r][1].push(...n(...s[t][r][0][0])),s[t][r][1].push(...n(...s[t][r][0][1])),s[t][r][2]=[],s[t][r][2].push(...n(...s[t][r][1][0])),s[t][r][2].push(...n(...s[t][r][1][1])),s[t][r][2].push(...n(...s[t][r][1][2])),s[t][r][2].push(...n(...s[t][r][1][3]))}for(let t=0;t&lt;8;++t){r[t]=[];for(let e=0;e&lt;8;++e)r[t][e]=[],r[t][e][0]=s[t][0][2][e],r[t][e][1]=s[t][1][2][e],r[t][e][2]=s[t][2][2][e],r[t][e][3]=s[t][3][2][e]}return r};class x{constructor(t,e){this.x=t||0,this.y=e||0}toString(){return`(x=${this.x}, y=${this.y})`}clone(){return new x(this.x,this.y)}add(t){return new x(this.x+t.x,this.y+t.y)}scale(t){return void 0===t.x?new x(this.x*t,this.y*t):new x(this.x*t.x,this.y*t.y)}distSquared(t){let e=this.x-t.x,s=this.y-t.y;return e*e+s*s}transform(t){let e=this.x*t.a+this.y*t.c+t.e,s=this.x*t.b+this.y*t.d+t.f;return new x(e,s)}}class g{constructor(t,e,s,r,n,o){void 0===t?(this.a=1,this.b=0,this.c=0,this.d=1,this.e=0,this.f=0):(this.a=t,this.b=e,this.c=s,this.d=r,this.e=n,this.f=o)}toString(){return`affine: ${this.a} ${this.c} ${this.e} \n       ${this.b} ${this.d} ${this.f}`}append(t){t instanceof g||console.error(&quot;mesh.js: argument to Affine.append is not affine!&quot;);let e=this.a*t.a+this.c*t.b,s=this.b*t.a+this.d*t.b,r=this.a*t.c+this.c*t.d,n=this.b*t.c+this.d*t.d,o=this.a*t.e+this.c*t.f+this.e,i=this.b*t.e+this.d*t.f+this.f;return new g(e,s,r,n,o,i)}}class w{constructor(t,e){this.nodes=t,this.colors=e}paintCurve(t,e){if(o(this.nodes)&gt;r){const s=n(...this.nodes);let r=[[],[]],o=[[],[]];for(let t=0;t&lt;4;++t)r[0][t]=this.colors[0][t],r[1][t]=(this.colors[0][t]+this.colors[1][t])/2,o[0][t]=r[1][t],o[1][t]=this.colors[1][t];let i=new w(s[0],r),a=new w(s[1],o);i.paintCurve(t,e),a.paintCurve(t,e)}else{let s=Math.round(this.nodes[0].x);if(s&gt;=0&amp;&amp;s&lt;e){let r=4*(~~this.nodes[0].y*e+s);t[r]=Math.round(this.colors[0][0]),t[r+1]=Math.round(this.colors[0][1]),t[r+2]=Math.round(this.colors[0][2]),t[r+3]=Math.round(this.colors[0][3])}}}}class m{constructor(t,e){this.nodes=t,this.colors=e}split(){let t=[[],[],[],[]],e=[[],[],[],[]],s=[[[],[]],[[],[]]],r=[[[],[]],[[],[]]];for(let s=0;s&lt;4;++s){const r=n(this.nodes[0][s],this.nodes[1][s],this.nodes[2][s],this.nodes[3][s]);t[0][s]=r[0][0],t[1][s]=r[0][1],t[2][s]=r[0][2],t[3][s]=r[0][3],e[0][s]=r[1][0],e[1][s]=r[1][1],e[2][s]=r[1][2],e[3][s]=r[1][3]}for(let t=0;t&lt;4;++t)s[0][0][t]=this.colors[0][0][t],s[0][1][t]=this.colors[0][1][t],s[1][0][t]=(this.colors[0][0][t]+this.colors[1][0][t])/2,s[1][1][t]=(this.colors[0][1][t]+this.colors[1][1][t])/2,r[0][0][t]=s[1][0][t],r[0][1][t]=s[1][1][t],r[1][0][t]=this.colors[1][0][t],r[1][1][t]=this.colors[1][1][t];return[new m(t,s),new m(e,r)]}paint(t,e){let s,n=!1;for(let t=0;t&lt;4;++t)if((s=o([this.nodes[0][t],this.nodes[1][t],this.nodes[2][t],this.nodes[3][t]]))&gt;r){n=!0;break}if(n){let s=this.split();s[0].paint(t,e),s[1].paint(t,e)}else{new w([...this.nodes[0]],[...this.colors[0]]).paintCurve(t,e)}}}class b{constructor(t){this.readMesh(t),this.type=t.getAttribute(&quot;type&quot;)||&quot;bilinear&quot;}readMesh(t){let e=[[]],s=[[]],r=Number(t.getAttribute(&quot;x&quot;)),n=Number(t.getAttribute(&quot;y&quot;));e[0][0]=new x(r,n);let o=t.children;for(let t=0,r=o.length;t&lt;r;++t){e[3*t+1]=[],e[3*t+2]=[],e[3*t+3]=[],s[t+1]=[];let r=o[t].children;for(let n=0,o=r.length;n&lt;o;++n){let o=r[n].children;for(let r=0,i=o.length;r&lt;i;++r){let i=r;0!==t&amp;&amp;++i;let h,d=o[r].getAttribute(&quot;path&quot;),c=&quot;l&quot;;null!=d&amp;&amp;(c=(h=d.match(/\s*([lLcC])\s*(.*)/))[1]);let u=l(h[2]);switch(c){case&quot;l&quot;:0===i?(e[3*t][3*n+3]=u[0].add(e[3*t][3*n]),e[3*t][3*n+1]=a(e[3*t][3*n],e[3*t][3*n+3]),e[3*t][3*n+2]=a(e[3*t][3*n+3],e[3*t][3*n])):1===i?(e[3*t+3][3*n+3]=u[0].add(e[3*t][3*n+3]),e[3*t+1][3*n+3]=a(e[3*t][3*n+3],e[3*t+3][3*n+3]),e[3*t+2][3*n+3]=a(e[3*t+3][3*n+3],e[3*t][3*n+3])):2===i?(0===n&amp;&amp;(e[3*t+3][3*n+0]=u[0].add(e[3*t+3][3*n+3])),e[3*t+3][3*n+1]=a(e[3*t+3][3*n],e[3*t+3][3*n+3]),e[3*t+3][3*n+2]=a(e[3*t+3][3*n+3],e[3*t+3][3*n])):(e[3*t+1][3*n]=a(e[3*t][3*n],e[3*t+3][3*n]),e[3*t+2][3*n]=a(e[3*t+3][3*n],e[3*t][3*n]));break;case&quot;L&quot;:0===i?(e[3*t][3*n+3]=u[0],e[3*t][3*n+1]=a(e[3*t][3*n],e[3*t][3*n+3]),e[3*t][3*n+2]=a(e[3*t][3*n+3],e[3*t][3*n])):1===i?(e[3*t+3][3*n+3]=u[0],e[3*t+1][3*n+3]=a(e[3*t][3*n+3],e[3*t+3][3*n+3]),e[3*t+2][3*n+3]=a(e[3*t+3][3*n+3],e[3*t][3*n+3])):2===i?(0===n&amp;&amp;(e[3*t+3][3*n+0]=u[0]),e[3*t+3][3*n+1]=a(e[3*t+3][3*n],e[3*t+3][3*n+3]),e[3*t+3][3*n+2]=a(e[3*t+3][3*n+3],e[3*t+3][3*n])):(e[3*t+1][3*n]=a(e[3*t][3*n],e[3*t+3][3*n]),e[3*t+2][3*n]=a(e[3*t+3][3*n],e[3*t][3*n]));break;case&quot;c&quot;:0===i?(e[3*t][3*n+1]=u[0].add(e[3*t][3*n]),e[3*t][3*n+2]=u[1].add(e[3*t][3*n]),e[3*t][3*n+3]=u[2].add(e[3*t][3*n])):1===i?(e[3*t+1][3*n+3]=u[0].add(e[3*t][3*n+3]),e[3*t+2][3*n+3]=u[1].add(e[3*t][3*n+3]),e[3*t+3][3*n+3]=u[2].add(e[3*t][3*n+3])):2===i?(e[3*t+3][3*n+2]=u[0].add(e[3*t+3][3*n+3]),e[3*t+3][3*n+1]=u[1].add(e[3*t+3][3*n+3]),0===n&amp;&amp;(e[3*t+3][3*n+0]=u[2].add(e[3*t+3][3*n+3]))):(e[3*t+2][3*n]=u[0].add(e[3*t+3][3*n]),e[3*t+1][3*n]=u[1].add(e[3*t+3][3*n]));break;case&quot;C&quot;:0===i?(e[3*t][3*n+1]=u[0],e[3*t][3*n+2]=u[1],e[3*t][3*n+3]=u[2]):1===i?(e[3*t+1][3*n+3]=u[0],e[3*t+2][3*n+3]=u[1],e[3*t+3][3*n+3]=u[2]):2===i?(e[3*t+3][3*n+2]=u[0],e[3*t+3][3*n+1]=u[1],0===n&amp;&amp;(e[3*t+3][3*n+0]=u[2])):(e[3*t+2][3*n]=u[0],e[3*t+1][3*n]=u[1]);break;default:console.error(&quot;mesh.js: &quot;+c+&quot; invalid path type.&quot;)}if(0===t&amp;&amp;0===n||r&gt;0){let e=window.getComputedStyle(o[r]).stopColor.match(/^rgb\s*\(\s*(\d+)\s*,\s*(\d+)\s*,\s*(\d+)\s*\)$/i),a=window.getComputedStyle(o[r]).stopOpacity,h=255;a&amp;&amp;(h=Math.floor(255*a)),e&amp;&amp;(0===i?(s[t][n]=[],s[t][n][0]=Math.floor(e[1]),s[t][n][1]=Math.floor(e[2]),s[t][n][2]=Math.floor(e[3]),s[t][n][3]=h):1===i?(s[t][n+1]=[],s[t][n+1][0]=Math.floor(e[1]),s[t][n+1][1]=Math.floor(e[2]),s[t][n+1][2]=Math.floor(e[3]),s[t][n+1][3]=h):2===i?(s[t+1][n+1]=[],s[t+1][n+1][0]=Math.floor(e[1]),s[t+1][n+1][1]=Math.floor(e[2]),s[t+1][n+1][2]=Math.floor(e[3]),s[t+1][n+1][3]=h):3===i&amp;&amp;(s[t+1][n]=[],s[t+1][n][0]=Math.floor(e[1]),s[t+1][n][1]=Math.floor(e[2]),s[t+1][n][2]=Math.floor(e[3]),s[t+1][n][3]=h))}}e[3*t+1][3*n+1]=new x,e[3*t+1][3*n+2]=new x,e[3*t+2][3*n+1]=new x,e[3*t+2][3*n+2]=new x,e[3*t+1][3*n+1].x=(-4*e[3*t][3*n].x+6*(e[3*t][3*n+1].x+e[3*t+1][3*n].x)+-2*(e[3*t][3*n+3].x+e[3*t+3][3*n].x)+3*(e[3*t+3][3*n+1].x+e[3*t+1][3*n+3].x)+-1*e[3*t+3][3*n+3].x)/9,e[3*t+1][3*n+2].x=(-4*e[3*t][3*n+3].x+6*(e[3*t][3*n+2].x+e[3*t+1][3*n+3].x)+-2*(e[3*t][3*n].x+e[3*t+3][3*n+3].x)+3*(e[3*t+3][3*n+2].x+e[3*t+1][3*n].x)+-1*e[3*t+3][3*n].x)/9,e[3*t+2][3*n+1].x=(-4*e[3*t+3][3*n].x+6*(e[3*t+3][3*n+1].x+e[3*t+2][3*n].x)+-2*(e[3*t+3][3*n+3].x+e[3*t][3*n].x)+3*(e[3*t][3*n+1].x+e[3*t+2][3*n+3].x)+-1*e[3*t][3*n+3].x)/9,e[3*t+2][3*n+2].x=(-4*e[3*t+3][3*n+3].x+6*(e[3*t+3][3*n+2].x+e[3*t+2][3*n+3].x)+-2*(e[3*t+3][3*n].x+e[3*t][3*n+3].x)+3*(e[3*t][3*n+2].x+e[3*t+2][3*n].x)+-1*e[3*t][3*n].x)/9,e[3*t+1][3*n+1].y=(-4*e[3*t][3*n].y+6*(e[3*t][3*n+1].y+e[3*t+1][3*n].y)+-2*(e[3*t][3*n+3].y+e[3*t+3][3*n].y)+3*(e[3*t+3][3*n+1].y+e[3*t+1][3*n+3].y)+-1*e[3*t+3][3*n+3].y)/9,e[3*t+1][3*n+2].y=(-4*e[3*t][3*n+3].y+6*(e[3*t][3*n+2].y+e[3*t+1][3*n+3].y)+-2*(e[3*t][3*n].y+e[3*t+3][3*n+3].y)+3*(e[3*t+3][3*n+2].y+e[3*t+1][3*n].y)+-1*e[3*t+3][3*n].y)/9,e[3*t+2][3*n+1].y=(-4*e[3*t+3][3*n].y+6*(e[3*t+3][3*n+1].y+e[3*t+2][3*n].y)+-2*(e[3*t+3][3*n+3].y+e[3*t][3*n].y)+3*(e[3*t][3*n+1].y+e[3*t+2][3*n+3].y)+-1*e[3*t][3*n+3].y)/9,e[3*t+2][3*n+2].y=(-4*e[3*t+3][3*n+3].y+6*(e[3*t+3][3*n+2].y+e[3*t+2][3*n+3].y)+-2*(e[3*t+3][3*n].y+e[3*t][3*n+3].y)+3*(e[3*t][3*n+2].y+e[3*t+2][3*n].y)+-1*e[3*t][3*n].y)/9}}this.nodes=e,this.colors=s}paintMesh(t,e){let s=(this.nodes.length-1)/3,r=(this.nodes[0].length-1)/3;if(&quot;bilinear&quot;===this.type||s&lt;2||r&lt;2){let n;for(let o=0;o&lt;s;++o)for(let s=0;s&lt;r;++s){let r=[];for(let t=3*o,e=3*o+4;t&lt;e;++t)r.push(this.nodes[t].slice(3*s,3*s+4));let i=[];i.push(this.colors[o].slice(s,s+2)),i.push(this.colors[o+1].slice(s,s+2)),(n=new m(r,i)).paint(t,e)}}else{let n,o,a,h,l,d,u;const x=s,g=r;s++,r++;let w=new Array(s);for(let t=0;t&lt;s;++t){w[t]=new Array(r);for(let e=0;e&lt;r;++e)w[t][e]=[],w[t][e][0]=this.nodes[3*t][3*e],w[t][e][1]=this.colors[t][e]}for(let t=0;t&lt;s;++t)for(let e=0;e&lt;r;++e)0!==t&amp;&amp;t!==x&amp;&amp;(n=i(w[t-1][e][0],w[t][e][0]),o=i(w[t+1][e][0],w[t][e][0]),w[t][e][2]=c(w[t-1][e][1],w[t][e][1],w[t+1][e][1],n,o)),0!==e&amp;&amp;e!==g&amp;&amp;(n=i(w[t][e-1][0],w[t][e][0]),o=i(w[t][e+1][0],w[t][e][0]),w[t][e][3]=c(w[t][e-1][1],w[t][e][1],w[t][e+1][1],n,o));for(let t=0;t&lt;r;++t){w[0][t][2]=[],w[x][t][2]=[];for(let e=0;e&lt;4;++e)n=i(w[1][t][0],w[0][t][0]),o=i(w[x][t][0],w[x-1][t][0]),w[0][t][2][e]=n&gt;0?2*(w[1][t][1][e]-w[0][t][1][e])/n-w[1][t][2][e]:0,w[x][t][2][e]=o&gt;0?2*(w[x][t][1][e]-w[x-1][t][1][e])/o-w[x-1][t][2][e]:0}for(let t=0;t&lt;s;++t){w[t][0][3]=[],w[t][g][3]=[];for(let e=0;e&lt;4;++e)n=i(w[t][1][0],w[t][0][0]),o=i(w[t][g][0],w[t][g-1][0]),w[t][0][3][e]=n&gt;0?2*(w[t][1][1][e]-w[t][0][1][e])/n-w[t][1][3][e]:0,w[t][g][3][e]=o&gt;0?2*(w[t][g][1][e]-w[t][g-1][1][e])/o-w[t][g-1][3][e]:0}for(let s=0;s&lt;x;++s)for(let r=0;r&lt;g;++r){let n=i(w[s][r][0],w[s+1][r][0]),o=i(w[s][r+1][0],w[s+1][r+1][0]),c=i(w[s][r][0],w[s][r+1][0]),x=i(w[s+1][r][0],w[s+1][r+1][0]),g=[[],[],[],[]];for(let t=0;t&lt;4;++t){(d=[])[0]=w[s][r][1][t],d[1]=w[s+1][r][1][t],d[2]=w[s][r+1][1][t],d[3]=w[s+1][r+1][1][t],d[4]=w[s][r][2][t]*n,d[5]=w[s+1][r][2][t]*n,d[6]=w[s][r+1][2][t]*o,d[7]=w[s+1][r+1][2][t]*o,d[8]=w[s][r][3][t]*c,d[9]=w[s+1][r][3][t]*x,d[10]=w[s][r+1][3][t]*c,d[11]=w[s+1][r+1][3][t]*x,d[12]=0,d[13]=0,d[14]=0,d[15]=0,u=f(d);for(let e=0;e&lt;9;++e){g[t][e]=[];for(let s=0;s&lt;9;++s)g[t][e][s]=p(u,e/8,s/8),g[t][e][s]&gt;255?g[t][e][s]=255:g[t][e][s]&lt;0&amp;&amp;(g[t][e][s]=0)}}h=[];for(let t=3*s,e=3*s+4;t&lt;e;++t)h.push(this.nodes[t].slice(3*r,3*r+4));l=y(h);for(let s=0;s&lt;8;++s)for(let r=0;r&lt;8;++r)(a=new m(l[s][r],[[[g[0][s][r],g[1][s][r],g[2][s][r],g[3][s][r]],[g[0][s][r+1],g[1][s][r+1],g[2][s][r+1],g[3][s][r+1]]],[[g[0][s+1][r],g[1][s+1][r],g[2][s+1][r],g[3][s+1][r]],[g[0][s+1][r+1],g[1][s+1][r+1],g[2][s+1][r+1],g[3][s+1][r+1]]]])).paint(t,e)}}}transform(t){if(t instanceof x)for(let e=0,s=this.nodes.length;e&lt;s;++e)for(let s=0,r=this.nodes[0].length;s&lt;r;++s)this.nodes[e][s]=this.nodes[e][s].add(t);else if(t instanceof g)for(let e=0,s=this.nodes.length;e&lt;s;++e)for(let s=0,r=this.nodes[0].length;s&lt;r;++s)this.nodes[e][s]=this.nodes[e][s].transform(t)}scale(t){for(let e=0,s=this.nodes.length;e&lt;s;++e)for(let s=0,r=this.nodes[0].length;s&lt;r;++s)this.nodes[e][s]=this.nodes[e][s].scale(t)}}document.querySelectorAll(&quot;rect,circle,ellipse,path,text&quot;).forEach((r,n)=&gt;{let o=r.getAttribute(&quot;id&quot;);o||(o=&quot;patchjs_shape&quot;+n,r.setAttribute(&quot;id&quot;,o));const i=r.style.fill.match(/^url\(\s*&quot;?\s*#([^\s&quot;]+)&quot;?\s*\)/),a=r.style.stroke.match(/^url\(\s*&quot;?\s*#([^\s&quot;]+)&quot;?\s*\)/);if(i&amp;&amp;i[1]){const a=document.getElementById(i[1]);if(a&amp;&amp;&quot;meshgradient&quot;===a.nodeName){const i=r.getBBox();let l=document.createElementNS(s,&quot;canvas&quot;);d(l,{width:i.width,height:i.height});const c=l.getContext(&quot;2d&quot;);let u=c.createImageData(i.width,i.height);const f=new b(a);&quot;objectBoundingBox&quot;===a.getAttribute(&quot;gradientUnits&quot;)&amp;&amp;f.scale(new x(i.width,i.height));const p=a.getAttribute(&quot;gradientTransform&quot;);null!=p&amp;&amp;f.transform(h(p)),&quot;userSpaceOnUse&quot;===a.getAttribute(&quot;gradientUnits&quot;)&amp;&amp;f.transform(new x(-i.x,-i.y)),f.paintMesh(u.data,l.width),c.putImageData(u,0,0);const y=document.createElementNS(t,&quot;image&quot;);d(y,{width:i.width,height:i.height,x:i.x,y:i.y});let g=l.toDataURL();y.setAttributeNS(e,&quot;xlink:href&quot;,g),r.parentNode.insertBefore(y,r),r.style.fill=&quot;none&quot;;const w=document.createElementNS(t,&quot;use&quot;);w.setAttributeNS(e,&quot;xlink:href&quot;,&quot;#&quot;+o);const m=&quot;patchjs_clip&quot;+n,M=document.createElementNS(t,&quot;clipPath&quot;);M.setAttribute(&quot;id&quot;,m),M.appendChild(w),r.parentElement.insertBefore(M,r),y.setAttribute(&quot;clip-path&quot;,&quot;url(#&quot;+m+&quot;)&quot;),u=null,l=null,g=null}}if(a&amp;&amp;a[1]){const o=document.getElementById(a[1]);if(o&amp;&amp;&quot;meshgradient&quot;===o.nodeName){const i=parseFloat(r.style.strokeWidth.slice(0,-2))*(parseFloat(r.style.strokeMiterlimit)||parseFloat(r.getAttribute(&quot;stroke-miterlimit&quot;))||1),a=r.getBBox(),l=Math.trunc(a.width+i),c=Math.trunc(a.height+i),u=Math.trunc(a.x-i/2),f=Math.trunc(a.y-i/2);let p=document.createElementNS(s,&quot;canvas&quot;);d(p,{width:l,height:c});const y=p.getContext(&quot;2d&quot;);let g=y.createImageData(l,c);const w=new b(o);&quot;objectBoundingBox&quot;===o.getAttribute(&quot;gradientUnits&quot;)&amp;&amp;w.scale(new x(l,c));const m=o.getAttribute(&quot;gradientTransform&quot;);null!=m&amp;&amp;w.transform(h(m)),&quot;userSpaceOnUse&quot;===o.getAttribute(&quot;gradientUnits&quot;)&amp;&amp;w.transform(new x(-u,-f)),w.paintMesh(g.data,p.width),y.putImageData(g,0,0);const M=document.createElementNS(t,&quot;image&quot;);d(M,{width:l,height:c,x:0,y:0});let S=p.toDataURL();M.setAttributeNS(e,&quot;xlink:href&quot;,S);const k=&quot;pattern_clip&quot;+n,A=document.createElementNS(t,&quot;pattern&quot;);d(A,{id:k,patternUnits:&quot;userSpaceOnUse&quot;,width:l,height:c,x:u,y:f}),A.appendChild(M),o.parentNode.appendChild(A),r.style.stroke=&quot;url(#&quot;+k+&quot;)&quot;,g=null,p=null,S=null}}})}();
</script>
  </g>
</svg>
